<svg width="83" height="38" viewBox="0 0 83 38" fill="none" xmlns="http://www.w3.org/2000/svg">
<path d="M35.25 9.276H33.036V8.7H38.13V9.276H35.916V15H35.25V9.276ZM41.471 10.23C42.065 10.23 42.536 10.404 42.884 10.752C43.238 11.094 43.415 11.595 43.415 12.255V15H42.776V12.318C42.776 11.826 42.653 11.451 42.407 11.193C42.161 10.935 41.81 10.806 41.354 10.806C40.844 10.806 40.439 10.959 40.139 11.265C39.845 11.565 39.698 11.982 39.698 12.516V15H39.059V8.322H39.698V11.094C39.872 10.818 40.112 10.605 40.418 10.455C40.724 10.305 41.075 10.23 41.471 10.23ZM49.2894 12.831H45.3294C45.3654 13.323 45.5544 13.722 45.8964 14.028C46.2384 14.328 46.6704 14.478 47.1924 14.478C47.4864 14.478 47.7564 14.427 48.0024 14.325C48.2484 14.217 48.4614 14.061 48.6414 13.857L49.0014 14.271C48.7914 14.523 48.5274 14.715 48.2094 14.847C47.8974 14.979 47.5524 15.045 47.1744 15.045C46.6884 15.045 46.2564 14.943 45.8784 14.739C45.5064 14.529 45.2154 14.241 45.0054 13.875C44.7954 13.509 44.6904 13.095 44.6904 12.633C44.6904 12.171 44.7894 11.757 44.9874 11.391C45.1914 11.025 45.4674 10.74 45.8154 10.536C46.1694 10.332 46.5654 10.23 47.0034 10.23C47.4414 10.23 47.8344 10.332 48.1824 10.536C48.5304 10.74 48.8034 11.025 49.0014 11.391C49.1994 11.751 49.2984 12.165 49.2984 12.633L49.2894 12.831ZM47.0034 10.779C46.5474 10.779 46.1634 10.926 45.8514 11.22C45.5454 11.508 45.3714 11.886 45.3294 12.354H48.6864C48.6444 11.886 48.4674 11.508 48.1554 11.22C47.8494 10.926 47.4654 10.779 47.0034 10.779Z" fill="black"/>
<path d="M2.64 26.34C3.68 26.5133 4.63333 26.6 5.5 26.6C6.36667 26.6 6.92 26.5933 7.16 26.58C7.13333 25.5667 7.12 24.5933 7.12 23.66C7.12 22.7267 7.12 22.0933 7.12 21.76C7.12 21.4267 7.13333 21.22 7.16 21.14C7.18667 21.0467 7.27333 20.96 7.42 20.88C7.56667 20.8 7.78 20.76 8.06 20.76C8.46 20.76 8.66 21 8.66 21.48V28.56C8.66 30.0267 8.62667 31.64 8.56 33.4C8.54667 33.7867 8.22 33.98 7.58 33.98C7.26 33.98 7.1 33.7867 7.1 33.4L7.18 28.1C6.75333 28.1267 6.16667 28.14 5.42 28.14C4.68667 28.14 3.76 28.06 2.64 27.9C2.64 29.66 2.72 31.5 2.88 33.42C2.89333 33.6333 2.8 33.8 2.6 33.92C2.4 34.0267 2.14667 34.08 1.84 34.08C1.54667 34.08 1.38667 33.9267 1.36 33.62C1.18667 31.7267 1.1 29.86 1.1 28.02L1.22 21.78C1.22 21.5133 1.32 21.32 1.52 21.2C1.72 21.0667 1.93333 21 2.16 21C2.53333 21 2.72 21.18 2.72 21.54L2.64 26.34ZM15.6955 24.66C16.2821 24.66 16.5755 25.16 16.5755 26.16C16.5755 26.2667 16.5755 26.38 16.5755 26.5L16.5355 27.9C16.5221 28.34 16.5155 28.7733 16.5155 29.2L16.8155 33.72C16.8155 34.0533 16.4755 34.22 15.7955 34.22C15.7555 34.22 15.6555 34.22 15.4955 34.22C15.3488 34.22 15.2421 34.16 15.1755 34.04C15.1221 33.92 15.1155 33.7733 15.1555 33.6C15.2088 33.4267 15.1955 33.2333 15.1155 33.02C14.5021 33.6733 13.6888 34 12.6755 34C10.7955 34 9.85547 32.5467 9.85547 29.64C9.85547 28.0267 10.1555 26.8067 10.7555 25.98C11.3688 25.1533 12.2421 24.74 13.3755 24.74C13.9088 24.74 14.4421 24.8333 14.9755 25.02C15.1488 24.78 15.3888 24.66 15.6955 24.66ZM13.6155 26.48C12.8555 26.48 12.2888 26.7 11.9155 27.14C11.5421 27.58 11.3555 28.3867 11.3555 29.56C11.3555 31.5333 11.8888 32.52 12.9555 32.52C13.2355 32.52 13.5421 32.3933 13.8755 32.14C14.2221 31.8867 14.4621 31.6 14.5955 31.28C14.8488 30.56 14.9755 29.7733 14.9755 28.92C14.9755 28.0667 14.8688 27.4467 14.6555 27.06C14.4555 26.6733 14.1088 26.48 13.6155 26.48ZM18.7075 33.38L18.4875 25.26C18.4875 25.0067 18.5742 24.8 18.7475 24.64C18.9208 24.48 19.0942 24.4 19.2675 24.4C19.6942 24.4 19.9408 24.58 20.0075 24.94C20.0608 25.3 20.0875 25.6733 20.0875 26.06C20.8075 25.1133 21.7075 24.64 22.7875 24.64C24.4408 24.64 25.2675 26.5267 25.2675 30.3C25.2675 30.6467 25.2675 31.1733 25.2675 31.88C25.2675 32.5733 25.2275 33.08 25.1475 33.4C25.0542 33.8 24.7675 34 24.2875 34C23.9675 34 23.8075 33.7867 23.8075 33.36L23.8275 32.24C23.8275 30.6933 23.7742 29.64 23.6675 29.08C23.5742 28.5067 23.4808 28.0533 23.3875 27.72C23.1608 27 22.7942 26.64 22.2875 26.64C21.6208 26.64 21.1542 26.88 20.8875 27.36C20.5942 27.88 20.4208 28.4933 20.3675 29.2C20.2742 30.44 20.2275 31.7533 20.2275 33.14C20.2275 33.4067 20.1275 33.62 19.9275 33.78C19.7275 33.94 19.4875 34.02 19.2075 34.02C18.8742 34.02 18.7075 33.8067 18.7075 33.38ZM31.7705 24.64L31.7505 20.78C31.7505 20.06 31.9771 19.7 32.4305 19.7C32.8971 19.7 33.1571 19.9 33.2105 20.3C33.2371 20.4733 33.2705 21.52 33.3105 23.44C33.3505 25.36 33.4105 27.16 33.4905 28.84C33.5838 30.52 33.6305 32.0867 33.6305 33.54C33.6305 33.94 33.3305 34.14 32.7305 34.14C32.3305 34.14 32.1305 33.86 32.1305 33.3C31.5571 33.7533 30.8771 33.98 30.0905 33.98C29.0905 33.98 28.2771 33.6067 27.6505 32.86C27.0371 32.1133 26.7305 31.1933 26.7305 30.1C26.7305 29.0067 26.9505 27.9867 27.3905 27.04C27.8438 26.08 28.5438 25.3933 29.4905 24.98C30.0771 24.7267 30.6438 24.6 31.1905 24.6C31.3905 24.6 31.5838 24.6133 31.7705 24.64ZM31.8705 27.38C31.7771 27.0867 31.6638 26.8667 31.5305 26.72C31.3971 26.56 31.2505 26.4667 31.0905 26.44C30.9438 26.4 30.7638 26.38 30.5505 26.38C30.3371 26.38 30.0771 26.46 29.7705 26.62C29.4638 26.78 29.2038 27.04 28.9905 27.4C28.5638 28.12 28.3505 28.88 28.3505 29.68C28.3505 30.4667 28.5038 31.1133 28.8105 31.62C29.1305 32.1133 29.5771 32.36 30.1505 32.36C30.7371 32.36 31.1971 32.0733 31.5305 31.5C31.8638 30.9267 32.0305 30.1933 32.0305 29.3C32.0305 28.3 31.9771 27.66 31.8705 27.38ZM36.4434 33.98C35.9901 33.98 35.5501 33.1 35.1234 31.34C34.7101 29.5667 34.5034 27.58 34.5034 25.38C34.5034 25.1533 34.5968 24.98 34.7834 24.86C34.9834 24.7267 35.1634 24.66 35.3234 24.66C35.4834 24.66 35.6101 24.7133 35.7034 24.82C35.8101 24.9133 35.8634 25.04 35.8634 25.2C35.8634 27.28 36.2168 29.28 36.9234 31.2C37.0301 31.04 37.1968 30.72 37.4234 30.24C37.6501 29.7467 37.8634 29.3867 38.0634 29.16C38.2634 28.9333 38.5034 28.82 38.7834 28.82C39.0634 28.82 39.3568 29.0267 39.6634 29.44C39.9701 29.8533 40.2301 30.3 40.4434 30.78C40.6701 31.2467 40.7968 31.4933 40.8234 31.52C41.1834 30.4 41.3634 29.36 41.3634 28.4L41.2434 25.36C41.2301 25.16 41.3234 24.9933 41.5234 24.86C41.7234 24.7133 41.9168 24.64 42.1034 24.64C42.4901 24.64 42.6834 25.3933 42.6834 26.9V28C42.6834 29.7867 42.4101 31.38 41.8634 32.78C41.5701 33.58 41.2034 33.98 40.7634 33.98C40.5101 33.98 40.2768 33.82 40.0634 33.5C39.8501 33.1667 39.6101 32.7 39.3434 32.1C39.0768 31.5 38.8701 31.0867 38.7234 30.86L38.1234 32.04C37.8968 32.5067 37.7234 32.8467 37.6034 33.06C37.4834 33.26 37.3168 33.4667 37.1034 33.68C36.8901 33.88 36.6701 33.98 36.4434 33.98ZM46.9213 24.74C47.6279 24.74 48.3013 24.9467 48.9413 25.36C49.5813 25.7733 49.9013 26.2867 49.9013 26.9C49.9013 27.5 49.6413 28.0867 49.1213 28.66C48.6013 29.22 47.9079 29.56 47.0413 29.68C46.6679 29.7333 46.1079 29.76 45.3613 29.76C45.5079 30.8933 45.7946 31.64 46.2212 32C46.3546 32.1467 46.5346 32.22 46.7613 32.22C47.5879 32.22 48.2813 31.96 48.8413 31.44C49.4013 30.9067 49.8013 30.64 50.0413 30.64C50.1479 30.64 50.3079 30.74 50.5213 30.94C50.7346 31.14 50.8413 31.3267 50.8413 31.5C50.8413 31.8467 50.4213 32.3467 49.5813 33C49.2079 33.3067 48.7546 33.5667 48.2213 33.78C47.7013 33.98 47.2146 34.08 46.7613 34.08C45.6013 34.08 44.7479 33.3333 44.2013 31.84C43.8546 30.92 43.6813 29.9067 43.6813 28.8C43.6813 27.6933 43.9413 26.74 44.4613 25.94C44.9813 25.14 45.8013 24.74 46.9213 24.74ZM47.0213 26.12C46.5146 26.12 46.0813 26.4067 45.7213 26.98C45.5879 27.18 45.4613 27.6333 45.3413 28.34C47.2079 28.34 48.1413 27.88 48.1413 26.96C48.1413 26.4 47.7679 26.12 47.0213 26.12ZM54.59 31.08L54.61 33.14C54.61 33.38 54.4967 33.6 54.27 33.8C54.0567 34 53.8433 34.1 53.63 34.1C53.3233 34.1 53.13 33.86 53.05 33.38C53.0367 33.2733 52.9833 32.3 52.89 30.46C52.7967 28.6067 52.6167 27.1533 52.35 26.1C52.23 25.5933 52.17 25.2933 52.17 25.2C52.17 24.76 52.4367 24.54 52.97 24.54C53.1967 24.54 53.3767 24.6267 53.51 24.8C53.6433 24.9733 53.7233 25.1533 53.75 25.34C53.79 25.5133 53.8233 25.7533 53.85 26.06C53.8767 26.3667 53.8967 26.56 53.91 26.64C54.19 25.9733 54.61 25.4733 55.17 25.14C55.73 24.8067 56.3433 24.64 57.01 24.64C58.1033 24.64 58.65 24.92 58.65 25.48C58.65 25.76 58.55 25.9867 58.35 26.16C58.1633 26.32 57.9433 26.4 57.69 26.4C56.5567 26.4 55.7567 26.76 55.29 27.48C54.8233 28.2 54.59 29.4 54.59 31.08ZM66.8453 33.1C66.8453 33.7267 66.5586 34.04 65.9853 34.04C65.7453 34.04 65.4186 33.4533 65.0053 32.28C64.592 31.0933 64.0386 30.18 63.3453 29.54C63.2786 29.6333 62.992 29.9 62.4853 30.34C61.992 30.7667 61.6986 31.0267 61.6053 31.12V33.12C61.5786 33.32 61.5453 33.4733 61.5053 33.58C61.4653 33.6867 61.372 33.7867 61.2253 33.88C61.092 33.9733 60.9053 34.02 60.6653 34.02C60.3053 34.02 60.1253 33.8 60.1253 33.36C60.1253 32.12 60.072 30.2 59.9653 27.6C59.8586 24.9867 59.8053 22.6467 59.8053 20.58C59.8053 20.3267 59.9053 20.1267 60.1053 19.98C60.3186 19.8333 60.5386 19.76 60.7653 19.76C61.072 19.76 61.2586 19.9533 61.3253 20.34V23.88C61.3253 24.3067 61.332 24.6267 61.3453 24.84C61.3586 25.0533 61.372 25.3733 61.3853 25.8C61.412 26.68 61.4586 27.6733 61.5253 28.78C61.912 28.4867 62.4053 28.0267 63.0053 27.4C63.6186 26.76 64.0786 26.2133 64.3853 25.76C64.8653 25 65.3053 24.62 65.7053 24.62C65.812 24.62 65.9186 24.6467 66.0253 24.7C66.3053 24.86 66.4453 25.0467 66.4453 25.26C66.4453 25.4733 66.352 25.7533 66.1653 26.1C65.6853 26.9267 65.132 27.68 64.5053 28.36C65.1053 29.0267 65.7053 29.98 66.3053 31.22C66.6653 32.02 66.8453 32.6467 66.8453 33.1ZM70.8861 24.74C71.5928 24.74 72.2661 24.9467 72.9061 25.36C73.5461 25.7733 73.8661 26.2867 73.8661 26.9C73.8661 27.5 73.6061 28.0867 73.0861 28.66C72.5661 29.22 71.8728 29.56 71.0061 29.68C70.6328 29.7333 70.0728 29.76 69.3261 29.76C69.4728 30.8933 69.7594 31.64 70.1861 32C70.3194 32.1467 70.4994 32.22 70.7261 32.22C71.5528 32.22 72.2461 31.96 72.8061 31.44C73.3661 30.9067 73.7661 30.64 74.0061 30.64C74.1128 30.64 74.2728 30.74 74.4861 30.94C74.6994 31.14 74.8061 31.3267 74.8061 31.5C74.8061 31.8467 74.3861 32.3467 73.5461 33C73.1728 33.3067 72.7194 33.5667 72.1861 33.78C71.6661 33.98 71.1794 34.08 70.7261 34.08C69.5661 34.08 68.7128 33.3333 68.1661 31.84C67.8194 30.92 67.6461 29.9067 67.6461 28.8C67.6461 27.6933 67.9061 26.74 68.4261 25.94C68.9461 25.14 69.7661 24.74 70.8861 24.74ZM70.9861 26.12C70.4794 26.12 70.0461 26.4067 69.6861 26.98C69.5528 27.18 69.4261 27.6333 69.3061 28.34C71.1728 28.34 72.1061 27.88 72.1061 26.96C72.1061 26.4 71.7328 26.12 70.9861 26.12ZM78.5548 31.08L78.5748 33.14C78.5748 33.38 78.4615 33.6 78.2348 33.8C78.0215 34 77.8082 34.1 77.5948 34.1C77.2882 34.1 77.0948 33.86 77.0148 33.38C77.0015 33.2733 76.9482 32.3 76.8548 30.46C76.7615 28.6067 76.5815 27.1533 76.3148 26.1C76.1948 25.5933 76.1348 25.2933 76.1348 25.2C76.1348 24.76 76.4015 24.54 76.9348 24.54C77.1615 24.54 77.3415 24.6267 77.4748 24.8C77.6082 24.9733 77.6882 25.1533 77.7148 25.34C77.7548 25.5133 77.7882 25.7533 77.8148 26.06C77.8415 26.3667 77.8615 26.56 77.8748 26.64C78.1548 25.9733 78.5748 25.4733 79.1348 25.14C79.6948 24.8067 80.3082 24.64 80.9748 24.64C82.0682 24.64 82.6148 24.92 82.6148 25.48C82.6148 25.76 82.5148 25.9867 82.3148 26.16C82.1282 26.32 81.9082 26.4 81.6548 26.4C80.5215 26.4 79.7215 26.76 79.2548 27.48C78.7882 28.2 78.5548 29.4 78.5548 31.08Z" fill="black"/>
</svg>
